<?xml version="1.0" standalone="no"?>
<!DOCTYPE svg PUBLIC "-//W3C//DTD SVG 20010904//EN"
 "http://www.w3.org/TR/2001/REC-SVG-20010904/DTD/svg10.dtd">
<svg version="1.0" xmlns="http://www.w3.org/2000/svg"
 width="2000.000000pt" height="824.000000pt" viewBox="0 0 2000.000000 824.000000"
 preserveAspectRatio="xMidYMid meet">

<g transform="translate(0.000000,824.000000) scale(0.100000,-0.100000)"
fill="#000000" stroke="none">
<path d="M8970 8231 c0 -5 -120 -1079 -266 -2387 -194 -1740 -264 -2401 -262
-2459 4 -67 9 -90 37 -142 62 -116 171 -205 342 -277 243 -104 565 -155 974
-156 633 0 1100 188 1505 606 351 363 571 852 655 1459 23 161 31 603 16 772
-40 419 -161 734 -337 877 -229 187 -575 191 -937 10 -223 -112 -386 -239
-590 -462 -294 -320 -543 -693 -818 -1227 -54 -104 -99 -185 -99 -178 0 6 108
476 240 1044 315 1354 338 1467 361 1769 24 325 -19 534 -142 683 -62 75 -72
77 -394 77 -157 0 -285 -4 -285 -9z m1975 -2340 c77 -52 132 -201 162 -446 23
-188 23 -614 -1 -805 -78 -645 -332 -1112 -670 -1230 -169 -60 -451 -37 -741
61 -121 40 -393 168 -415 194 -10 12 7 59 81 232 411 957 932 1728 1328 1963
125 74 182 81 256 31z"/>
<path d="M1475 8190 c-326 -12 -921 -61 -935 -77 -9 -11 -500 -4504 -511
-4673 -14 -229 15 -415 76 -496 16 -20 48 -46 74 -57 43 -19 58 -20 236 -13
104 4 334 15 511 26 176 11 503 24 725 30 507 12 708 35 980 111 333 93 605
245 820 459 212 211 335 441 401 746 20 96 23 135 22 329 0 207 -2 226 -27
320 -74 275 -267 536 -522 707 -91 61 -242 141 -327 173 l-47 17 102 68 c353
235 583 523 665 835 70 264 52 581 -46 813 -167 398 -607 615 -1362 671 -202
15 -587 20 -835 11z m390 -581 c146 -14 337 -47 434 -75 276 -80 446 -233 497
-450 23 -96 14 -319 -16 -424 -79 -277 -303 -511 -655 -685 -181 -89 -286
-130 -482 -189 -172 -52 -193 -68 -193 -143 0 -25 8 -58 18 -75 24 -41 123
-114 207 -153 193 -90 330 -73 677 78 l36 17 63 -42 c182 -122 328 -332 390
-564 32 -119 38 -375 11 -504 -25 -120 -70 -237 -124 -320 -55 -85 -184 -213
-278 -274 -284 -187 -731 -296 -1225 -300 l-200 -1 -13 155 c-10 115 -10 198
-3 320 8 143 351 3528 367 3619 l5 34 192 -7 c105 -4 237 -11 292 -17z"/>
<path d="M16910 8183 c-34 -13 -59 -47 -65 -87 -3 -22 -44 -491 -90 -1040 -94
-1118 -92 -1041 -17 -1107 34 -30 39 -31 102 -27 128 9 173 51 238 222 44 112
521 1583 548 1686 23 87 23 195 1 237 -20 37 -78 74 -157 99 -45 14 -102 18
-300 20 -135 2 -252 1 -260 -3z"/>
<path d="M12876 6668 c-6 -17 -285 -2270 -327 -2638 -41 -358 -46 -650 -12
-771 75 -269 247 -402 538 -416 191 -10 344 27 560 132 307 149 573 374 852
720 221 273 423 608 568 940 37 86 64 133 51 90 -3 -11 -91 -366 -195 -790
-244 -995 -293 -1166 -410 -1440 -153 -357 -324 -554 -542 -626 -65 -21 -91
-24 -214 -23 -116 1 -157 6 -235 27 -206 54 -426 156 -687 318 -316 196 -344
212 -387 216 -86 10 -109 -64 -86 -283 19 -184 59 -320 131 -441 48 -79 169
-205 248 -258 241 -160 638 -220 1051 -159 823 121 1458 626 1699 1349 42 126
83 313 100 455 6 47 51 551 101 1120 120 1385 116 1342 157 1615 32 207 37
265 37 420 0 200 -13 274 -62 355 -42 69 -96 94 -196 92 -209 -4 -533 -94
-662 -183 -76 -52 -86 -77 -80 -194 3 -55 13 -149 22 -210 44 -306 11 -515
-143 -905 -207 -527 -567 -1113 -869 -1414 -55 -56 -126 -116 -158 -135 -147
-87 -279 -73 -329 37 -20 43 -22 62 -22 247 1 252 18 383 165 1270 123 741
130 792 130 960 0 197 -37 354 -104 446 -60 81 -70 84 -399 87 -232 3 -288 1
-291 -10z"/>
<path d="M6130 6659 c-555 -53 -1073 -386 -1424 -914 -90 -135 -234 -430 -290
-593 -123 -357 -176 -729 -163 -1137 22 -701 208 -1080 578 -1182 99 -28 336
-25 447 5 235 64 450 193 666 402 317 306 589 695 926 1325 56 105 99 181 96
170 -3 -11 -31 -108 -62 -215 -67 -236 -164 -628 -198 -805 -42 -219 -49 -298
-43 -470 9 -237 33 -322 104 -367 37 -23 44 -23 336 -26 163 -2 297 -1 297 2
0 15 152 1623 165 1746 59 546 173 1052 390 1725 75 232 83 287 46 317 -13 10
-39 18 -59 18 -19 0 -157 -40 -306 -90 -388 -128 -363 -123 -464 -83 -393 154
-701 205 -1042 172z m-25 -593 c204 -52 437 -140 679 -255 119 -56 128 -62
122 -84 -9 -39 -167 -379 -276 -597 -382 -764 -850 -1388 -1163 -1552 -61 -32
-97 -34 -154 -9 -138 63 -203 344 -203 878 0 248 10 390 41 582 57 361 186
683 347 866 81 92 200 172 290 195 61 15 208 5 317 -24z"/>
<path d="M18865 6664 c-606 -46 -1001 -265 -1191 -659 -74 -153 -88 -220 -88
-440 -1 -170 1 -198 22 -269 43 -150 92 -227 232 -366 151 -152 277 -247 600
-455 509 -328 585 -388 642 -503 31 -63 33 -72 32 -172 -1 -116 -18 -178 -75
-263 -81 -123 -251 -177 -488 -157 -308 27 -640 149 -999 368 -175 107 -223
115 -283 50 -67 -70 -102 -325 -64 -464 56 -206 276 -372 609 -458 181 -47
309 -60 591 -61 228 0 275 3 380 23 426 80 722 243 941 516 70 88 149 233 183
336 95 296 86 658 -22 880 -57 117 -221 267 -419 385 -46 27 -235 120 -420
206 -426 198 -531 262 -607 373 -105 153 -66 411 77 510 93 63 124 71 292 70
139 0 164 -3 245 -28 135 -41 284 -107 443 -196 218 -122 293 -135 365 -64 68
69 109 214 109 389 0 79 -4 112 -22 158 -56 148 -217 233 -518 272 -111 15
-468 27 -567 19z"/>
</g>
</svg>
