<svg xmlns="http://www.w3.org/2000/svg" version="1.1" xmlns:xlink="http://www.w3.org/1999/xlink" xmlns:svgjs="http://svgjs.dev/svgjs" width="1500" height="1500" viewBox="0 0 1500 1500"><rect width="1500" height="1500" fill="#ffffff"></rect><g transform="matrix(0.6666666666666666,0,0,0.6666666666666666,249.50000000000006,249.50000000000006)"><svg viewBox="0 0 280 280" data-background-color="#ffffff" preserveAspectRatio="xMidYMid meet" height="1500" width="1500" xmlns="http://www.w3.org/2000/svg" xmlns:xlink="http://www.w3.org/1999/xlink"><g id="tight-bounds" transform="matrix(1,0,0,1,0.13999999999998636,0.13999999999998636)"><svg viewBox="0 0 279.72 279.72" height="279.72" width="279.72"><g><svg viewBox="0 0 279.72 279.72" height="279.72" width="279.72"><g><svg viewBox="0 0 279.72 279.72" height="279.72" width="279.72"><g id="textblocktransform"><svg viewBox="0 0 279.72 279.72" height="279.72" width="279.72" id="textblock"><g><svg viewBox="0 0 279.72 279.72" height="279.72" width="279.72"><g transform="matrix(1,0,0,1,91.07132915440306,91.07728413459202)"><svg viewBox="0 0 97.5773416911939 97.56543173081597" height="97.56543173081597" width="97.5773416911939"><g id="icon-0"><svg xmlns="http://www.w3.org/2000/svg" xmlns:xlink="http://www.w3.org/1999/xlink" version="1.1" x="0" y="0" viewBox="12.657876592976335 12.661118709702281 74.64212340702366 74.63301284183615" enable-background="new 0 0 100 100" xml:space="preserve" height="97.56543173081597" width="97.5773416911939" class="icon-xg-0" data-fill-palette-color="accent" id="xg-0"><g fill="#f3b254" data-fill-palette-color="accent"><path d="M62.8 14.9c-14.6-5.4-31.8-0.8-41.7 11.3C11.2 38.4 9.8 55.9 18 69.3c8.1 13.4 24.1 20.3 39.4 17.3 15-3 27-15.5 29.4-30.6 0.3-2 0.5-4 0.5-6C87.2 34.4 77.4 20.3 62.8 14.9zM61.6 82.1c-13.5 4.8-28.7 0.6-37.9-10.3-9.3-11-10.4-27.3-2.9-39.6C25.2 25 32.1 19.8 40 17.4c-1.6 1.8-2.4 4.2-2 6.9 0.8 5.7 6.4 8.6 11.8 8.3 0.2 0 0.4 0 0.6-0.1 3.5 2.8 8.9 2.8 11.7-1.3 0.6-0.8-0.8-1.6-1.4-0.8-2 2.9-5.6 3.1-8.4 1.5 1.2-0.6 2.2-1.6 2.7-3 0.8-2.1 0.4-4.7-1.2-6.3-1.6-1.6-4-1.3-5.5 0.2-1.8 1.8-1.5 4.5-0.5 6.6 0.3 0.5 0.6 1 1 1.5-1.3 0-2.7-0.3-3.7-0.7-2.3-0.7-4.2-2.2-5.1-4.5-1.5-3.7 0.3-7.8 3.6-9.4 4.2-0.8 8.6-0.8 12.9 0C72.5 19.7 84 33.8 84.1 50 84 64.2 75 77.3 61.6 82.1zM49 28c-0.5-1.3-0.5-2.9 0.5-4 0.9-0.9 2.3-1.2 3.2-0.2 1.7 1.6 1.4 4.9-0.4 6.3-0.4 0.4-1 0.6-1.5 0.7C50 30.1 49.4 29.1 49 28z" fill="#f3b254" data-fill-palette-color="accent"></path><path d="M41.1 47.8c-3.2 2.5-7 3.8-11 2.4-1.5-0.5-3-1.3-4.1-2.4-0.7-0.7-1.9 0.4-1.1 1.1 1.5 1.4 3.5 2.5 5.5 3 4.3 1.2 8.5-0.3 11.9-3C43 48.3 41.9 47.2 41.1 47.8z" fill="#f3b254" data-fill-palette-color="accent"></path><path d="M63 50.2c-1.5-0.5-3-1.3-4.1-2.4-0.7-0.7-1.9 0.4-1.1 1.1 1.5 1.4 3.5 2.5 5.5 3 4.3 1.2 8.5-0.3 11.9-3 0.8-0.6-0.3-1.8-1.1-1.1C70.8 50.3 66.9 51.6 63 50.2z" fill="#f3b254" data-fill-palette-color="accent"></path><path d="M56.2 70.4c-1.7 2.2-4.2 4-6.9 2.4-0.9-0.6-1.8-1.4-2.4-2.4-0.6-0.9-1.9-0.1-1.4 0.8 0.9 1.4 2.4 2.7 4 3.4 3.4 1.4 6.2-0.8 8.1-3.4C58.2 70.4 56.8 69.6 56.2 70.4z" fill="#f3b254" data-fill-palette-color="accent"></path></g></svg></g></svg></g><g id="text-0"><path d="M29.342 105.015v0c-0.741 2.16-1.783 3.529-3.125 4.106-1.344 0.584-2.859 0.586-4.545 0.008v0c-0.442-0.152-0.963-0.373-1.562-0.663-0.599-0.29-1.315-0.652-2.148-1.087v0c-1.204-0.646-2.288-1.191-3.251-1.634-0.961-0.45-2.038-0.879-3.232-1.289v0c-1.377-0.472-2.509-0.815-3.396-1.028v0c0.114 0.533 0.135 0.904 0.063 1.112v0c-0.141 0.411-0.679 0.455-1.613 0.135v0c-0.733-0.251-1.296-0.625-1.692-1.12-0.395-0.495-0.683-1.198-0.865-2.108v0c-0.209-0.912-0.283-2.003-0.221-3.274 0.062-1.271 0.319-2.566 0.772-3.886v0c0.739-2.154 1.793-3.621 3.162-4.4 1.369-0.78 2.859-0.893 4.469-0.341v0c1.036 0.355 1.92 0.906 2.652 1.651 0.726 0.743 1.29 1.632 1.691 2.666v0c1.636-3.06 4.061-4.039 7.276-2.935v0c1.737 0.596 3.15 1.631 4.239 3.106 1.096 1.477 1.755 3.197 1.979 5.158v0c0.241 1.911 0.023 3.852-0.653 5.823zM25.555 101.979v0c0.401-1.168 0.603-2.282 0.606-3.34-0.003-1.06-0.217-1.981-0.641-2.761-0.428-0.789-1.056-1.326-1.883-1.61v0c-1.067-0.366-1.951-0.249-2.652 0.351-0.702 0.606-1.222 1.402-1.56 2.387v0c-0.143 0.417-0.28 0.949-0.41 1.596v0c-0.038 0.276-0.116 0.585-0.233 0.926v0c-0.195 0.568-0.591 0.962-1.189 1.18-0.595 0.212-1.243 0.198-1.944-0.042v0c-0.493-0.169-0.729-0.497-0.71-0.985v0c0.258-3.448-0.639-5.524-2.692-6.229v0c-1.636-0.561-2.842 0.289-3.617 2.55v0c-0.284 0.827-0.49 1.9-0.618 3.219v0c1.27 0.436 2.576 0.958 3.92 1.568 1.346 0.603 2.726 1.292 4.141 2.066v0c0.982 0.513 1.813 0.94 2.494 1.28 0.683 0.333 1.246 0.576 1.689 0.727v0c1.402 0.481 2.517 0.472 3.345-0.027 0.822-0.502 1.473-1.454 1.954-2.856z" fill="#6b6565" data-fill-palette-color="primary"></path><path d="M37.388 86.665v0c-0.821 1.431-1.926 2.324-3.317 2.681-1.39 0.357-2.917 0.059-4.579-0.895v0c-1.193-0.685-2.245-1.596-3.154-2.734-0.916-1.141-1.594-2.427-2.036-3.858-0.45-1.429-0.606-2.923-0.465-4.482 0.138-1.568 0.65-3.126 1.537-4.673v0c0.821-1.431 1.764-2.51 2.829-3.238 1.074-0.731 2.028-0.857 2.862-0.379v0c0.208 0.12 0.473 0.302 0.794 0.548 0.321 0.246 0.567 0.468 0.738 0.666v0c0.151 0.179 0.264 0.379 0.338 0.598 0.083 0.217 0.063 0.433-0.06 0.647v0c-0.056 0.098-0.194 0.258-0.413 0.479v0c0.445 0.378 0.89 0.73 1.335 1.055 0.448 0.319 0.913 0.616 1.393 0.892v0c0.903 0.518 1.784 0.843 2.641 0.972 0.86 0.124 1.605-0.168 2.235-0.877v0c0.169-0.188 0.341-0.32 0.517-0.396 0.169-0.08 0.407-0.032 0.714 0.144v0c0.266 0.153 0.561 0.411 0.884 0.773 0.329 0.366 0.551 0.824 0.666 1.375 0.106 0.553-0.039 1.175-0.434 1.864v0c-0.532 0.927-1.281 1.448-2.248 1.563-0.963 0.109-2.076-0.198-3.339-0.923v0c0.801 1.314 1.285 2.677 1.452 4.09 0.171 1.407-0.126 2.776-0.89 4.108zM34.331 83.398v0c0.548-0.956 0.732-1.967 0.551-3.033-0.175-1.063-0.601-2.058-1.278-2.985v0c-0.418-0.586-0.924-1.146-1.519-1.68-0.595-0.534-1.214-1.016-1.859-1.448v0c-0.418 0.299-0.837 0.674-1.259 1.126-0.424 0.457-0.799 0.97-1.124 1.537v0c-0.834 1.454-1.092 2.896-0.773 4.326 0.315 1.436 1.116 2.523 2.402 3.261v0c0.956 0.548 1.874 0.725 2.756 0.53 0.884-0.186 1.585-0.73 2.103-1.634z" fill="#6b6565" data-fill-palette-color="primary"></path><path d="M51.304 66.467v0c-0.653 0.777-1.35 1.329-2.09 1.659-0.739 0.329-1.497 0.525-2.274 0.587v0c0.181 0.51 0.297 1.027 0.347 1.548 0.04 0.523-0.09 0.963-0.391 1.32v0c-0.193 0.23-0.447 0.392-0.762 0.485-0.309 0.098-0.561 0.029-0.757-0.205v0c-1.414-1.731-2.89-3.431-4.427-5.099-1.537-1.669-3.197-3.253-4.98-4.754v0c-1.492-1.255-2.932-2.38-4.321-3.374-1.393-0.989-2.866-1.67-4.42-2.044v0c-0.295-0.074-0.57-0.152-0.823-0.234-0.249-0.088-0.456-0.2-0.619-0.338v0c-0.404-0.34-0.601-0.898-0.593-1.676 0.013-0.783 0.239-1.435 0.678-1.957v0c0.636-0.756 1.533-0.883 2.69-0.381 1.153 0.507 2.633 1.522 4.442 3.044v0c1.533 1.29 2.875 2.537 4.025 3.741 1.16 1.203 2.122 2.27 2.885 3.2v0c-0.747-1.632-1.117-3.314-1.11-5.045 0.007-1.74 0.547-3.248 1.622-4.525v0c1.079-1.282 2.351-1.927 3.814-1.935 1.459-0.012 2.913 0.593 4.365 1.814v0c1.068 0.899 1.971 1.946 2.709 3.143 0.733 1.193 1.252 2.437 1.558 3.733 0.306 1.296 0.343 2.575 0.11 3.836-0.233 1.252-0.793 2.405-1.678 3.457zM48.521 62.882v0c1.006-1.196 1.404-2.436 1.194-3.721-0.206-1.29-0.802-2.35-1.788-3.18v0c-0.863-0.727-1.73-1.05-2.6-0.97-0.871 0.07-1.633 0.494-2.286 1.27v0c-0.653 0.777-0.998 1.669-1.035 2.677-0.046 1.009 0.138 2.045 0.552 3.109 0.414 1.064 0.966 2.083 1.656 3.056v0c0.864-0.093 1.67-0.34 2.417-0.741 0.748-0.391 1.378-0.891 1.89-1.5z" fill="#6b6565" data-fill-palette-color="primary"></path><path d="M67.455 65.015v0c-0.87 0.709-1.808 1.085-2.814 1.129-1.015 0.043-1.844-0.328-2.484-1.115v0c-0.502-0.616-0.744-1.293-0.725-2.032 0.018-0.739 0.305-1.333 0.859-1.784v0c0.254-0.207 0.469-0.313 0.644-0.319 0.175 0.004 0.339 0.03 0.491 0.079v0c0.399 0.14 0.791 0.221 1.178 0.241 0.387 0.021 0.772-0.125 1.155-0.437v0c0.507-0.413 0.854-0.997 1.041-1.752 0.181-0.75 0.282-1.526 0.302-2.326v0c0.033-0.699 0.001-1.633-0.099-2.801-0.103-1.173-0.291-2.446-0.564-3.816v0c-0.137 0.783-0.334 1.43-0.59 1.94-0.256 0.51-0.566 0.913-0.927 1.208v0c-0.445 0.363-1.018 0.553-1.718 0.572-0.694 0.014-1.465-0.392-2.31-1.218v0c-0.641-0.649-1.398-1.325-2.271-2.026-0.877-0.707-1.772-1.351-2.685-1.934-0.913-0.582-1.787-0.994-2.622-1.236v0c-0.357-0.131-0.684-0.184-0.981-0.157-0.297 0.027-0.644 0.167-1.039 0.421v0c-0.271 0.186-0.497 0.246-0.681 0.179-0.174-0.065-0.374-0.238-0.602-0.517v0c-0.624-0.766-0.914-1.555-0.869-2.367 0.045-0.812 0.43-1.513 1.155-2.103v0c0.875-0.713 1.776-0.891 2.703-0.535 0.931 0.361 1.922 0.906 2.973 1.635v0c0.421 0.295 0.945 0.711 1.573 1.25 0.629 0.529 1.286 1.119 1.97 1.767 0.685 0.639 1.317 1.274 1.898 1.903v0c0.4 0.449 0.857 0.465 1.37 0.047v0c0.678-0.552 1.152-1.292 1.422-2.218 0.275-0.931 0.332-1.898 0.169-2.902-0.159-0.999-0.542-1.871-1.15-2.616v0c-0.346-0.425-0.712-0.763-1.099-1.017-0.387-0.253-0.811-0.403-1.271-0.45v0c-0.419-0.081-0.758-0.149-1.019-0.204-0.255-0.059-0.469-0.195-0.642-0.407v0c-0.295-0.362-0.403-0.843-0.322-1.442 0.079-0.59 0.273-1.187 0.582-1.792 0.303-0.6 0.636-1.048 0.998-1.343v0c0.637-0.519 1.308-0.562 2.014-0.129 0.711 0.429 1.305 1.047 1.783 1.855v0c0.689 1.11 1.396 2.502 2.122 4.175 0.726 1.674 1.391 3.5 1.996 5.48 0.609 1.984 1.092 3.989 1.45 6.014 0.358 2.025 0.528 3.915 0.51 5.669v0c-0.003 1.518-0.233 2.933-0.69 4.244-0.457 1.311-1.185 2.373-2.184 3.187z" fill="#6b6565" data-fill-palette-color="primary"></path><path d="M69.622 28.504v0c-0.491 0.311-1.056 0.037-1.696-0.822v0c-0.418-0.51-0.901-1.16-1.449-1.951-0.554-0.787-1.067-1.553-1.539-2.298v0c-0.643-1.015-1.031-1.833-1.163-2.453-0.128-0.614 0.247-1.2 1.127-1.757v0c0.931-0.59 1.712-0.385 2.345 0.612v0c0.293 0.462 0.607 1.089 0.943 1.881 0.345 0.793 0.679 1.613 1.001 2.46 0.327 0.852 0.602 1.611 0.826 2.276v0c0.174 0.475 0.238 0.881 0.191 1.218-0.047 0.338-0.242 0.616-0.586 0.834z" fill="#6b6565" data-fill-palette-color="primary"></path><path d="M86.772 38.413v0c-0.903 0.463-1.815 0.762-2.737 0.896-0.915 0.132-1.745 0.08-2.487-0.154-0.737-0.237-1.281-0.698-1.631-1.381v0c-0.189-0.368-0.277-0.766-0.263-1.193 0.017-0.421 0.233-0.739 0.648-0.952v0c0.22-0.113 0.484-0.169 0.792-0.169v0c0.565 0.018 1.242-0.044 2.031-0.186 0.787-0.148 1.558-0.416 2.313-0.803v0c0.856-0.439 1.551-0.949 2.085-1.531 0.535-0.582 0.689-1.093 0.464-1.532v0c-0.174-0.339-0.548-0.454-1.123-0.347-0.575 0.107-1.494 0.379-2.756 0.816v0c-0.878 0.263-1.748 0.491-2.609 0.685-0.855 0.191-1.648 0.173-2.379-0.052-0.737-0.222-1.343-0.797-1.819-1.724v0c-0.463-0.903-0.658-1.906-0.586-3.009 0.067-1.1 0.456-2.185 1.168-3.255 0.715-1.079 1.791-1.988 3.229-2.725v0c0.761-0.39 1.539-0.68 2.334-0.87 0.795-0.19 1.512-0.235 2.149-0.134 0.64 0.107 1.091 0.416 1.353 0.927v0c0.225 0.44 0.281 0.921 0.167 1.445-0.117 0.518-0.318 0.996-0.604 1.435-0.285 0.439-0.562 0.727-0.829 0.864v0c-0.196 0.101-0.496 0.086-0.9-0.044v0c-0.59-0.125-1.169-0.129-1.739-0.01-0.575 0.122-1.106 0.308-1.593 0.559v0c-0.731 0.375-1.266 0.788-1.605 1.239-0.339 0.451-0.42 0.849-0.243 1.194v0c0.161 0.315 0.483 0.473 0.964 0.474 0.475 0.004 1.017-0.094 1.627-0.294 0.601-0.203 1.179-0.402 1.732-0.596v0c1.515-0.529 2.81-0.769 3.886-0.72 1.07 0.052 1.912 0.678 2.527 1.878v0c0.475 0.927 0.686 1.982 0.633 3.165-0.054 1.183-0.426 2.323-1.117 3.421-0.688 1.088-1.715 1.982-3.082 2.683z" fill="#6b6565" data-fill-palette-color="primary"></path><path d="M111.879 28.963v0c-0.32 0.066-0.658 0.081-1.013 0.045-0.363-0.041-0.7-0.237-1.012-0.588-0.313-0.358-0.555-0.952-0.726-1.783v0c-0.112-0.543-0.202-1.26-0.271-2.153-0.076-0.898-0.164-2.063-0.262-3.495v0c-0.046-0.918-0.139-2.14-0.277-3.666-0.132-1.527-0.367-3.112-0.706-4.753v0c-0.15-0.726-0.336-1.492-0.557-2.299-0.223-0.813-0.484-1.536-0.785-2.169v0c-0.304 0.145-0.538 0.234-0.702 0.267v0c-0.163 0.034-0.294 0.013-0.391-0.062-0.099-0.082-0.176-0.257-0.231-0.525v0c-0.111-0.536-0.164-1.091-0.16-1.665 0.009-0.582 0.11-1.086 0.301-1.514v0c0.19-0.435 0.448-0.768 0.775-0.999 0.332-0.239 0.693-0.426 1.081-0.561v0c0.657-0.218 1.495-0.469 2.513-0.755 1.026-0.28 2.103-0.564 3.23-0.851 1.134-0.289 2.171-0.53 3.113-0.725v0c1.262-0.261 2.197-0.44 2.804-0.538 0.614-0.1 1.086-0.156 1.417-0.17v0c0.721-0.04 1.149 0.264 1.282 0.911v0c0.095 0.458 0.091 0.885-0.011 1.281-0.094 0.401-0.232 0.774-0.413 1.118v0c-0.212 0.494-0.466 0.863-0.763 1.109-0.298 0.239-0.721 0.388-1.268 0.446v0c-0.469 0.042-1.106 0.126-1.912 0.252-0.801 0.118-1.711 0.282-2.731 0.492v0c-0.432 0.089-0.994 0.222-1.687 0.4-0.688 0.169-1.419 0.361-2.193 0.576v0c0.163 0.921 0.299 1.977 0.409 3.168 0.105 1.199 0.203 2.419 0.297 3.661v0c0.709-0.201 1.572-0.427 2.59-0.678 1.012-0.25 2.051-0.502 3.117-0.757 1.074-0.249 2.026-0.459 2.856-0.631v0c0.484-0.1 0.847-0.11 1.088-0.03 0.24 0.073 0.402 0.312 0.486 0.718v0c0.095 0.458 0.081 0.972-0.039 1.542-0.121 0.57-0.325 1.083-0.613 1.538-0.283 0.447-0.629 0.699-1.041 0.757v0c-0.678 0.086-1.631 0.242-2.859 0.468-1.228 0.227-2.516 0.479-3.863 0.757v0l-1.285 0.266c0.063 0.601 0.134 1.193 0.214 1.776 0.081 0.59 0.172 1.127 0.272 1.611v0c0.195 0.942 0.46 1.746 0.795 2.413 0.337 0.674 0.826 1.21 1.468 1.61v0c0.42 0.282 0.677 0.651 0.771 1.108v0c0.122 0.589-0.104 1.194-0.678 1.818-0.567 0.622-1.377 1.041-2.43 1.259z" fill="#6b6565" data-fill-palette-color="primary"></path><path d="M133.433 25.894v0c-1.887 0.107-3.429-0.321-4.627-1.283-1.191-0.962-1.844-2.444-1.957-4.444v0c-0.053-0.933 0.026-1.844 0.236-2.732 0.21-0.895 0.514-1.738 0.91-2.53v0c-0.425 0.298-0.747 0.454-0.966 0.467v0c-0.327 0.018-0.564-0.152-0.712-0.512-0.141-0.36-0.221-0.72-0.241-1.08v0c-0.035-0.627 0.066-1.134 0.305-1.522 0.239-0.381 0.477-0.676 0.712-0.883v0c0.545-0.526 1.418-1.117 2.618-1.773 1.2-0.663 2.663-1.044 4.39-1.142v0c2.353-0.133 4.217 0.42 5.592 1.66 1.381 1.246 2.139 3.046 2.272 5.399v0c0.104 1.833-0.185 3.518-0.868 5.055-0.682 1.537-1.678 2.784-2.988 3.741-1.304 0.95-2.862 1.476-4.676 1.579zM134.476 21.631v0c1.367-0.077 2.499-0.573 3.397-1.486 0.898-0.92 1.306-2.09 1.225-3.511v0c-0.084-1.48-0.624-2.51-1.619-3.088-0.996-0.572-2.123-0.823-3.383-0.752v0c-0.573 0.032-1.09 0.115-1.551 0.249-0.46 0.14-0.889 0.301-1.287 0.484v0c-0.356 0.569-0.664 1.205-0.925 1.908-0.261 0.704-0.368 1.465-0.322 2.286v0c0.078 1.373 0.546 2.383 1.405 3.03 0.86 0.654 1.879 0.947 3.06 0.88z" fill="#6b6565" data-fill-palette-color="primary"></path><path d="M152.915 26.449v0c-1.878-0.208-3.328-0.886-4.35-2.034-1.015-1.147-1.412-2.716-1.192-4.708v0c0.103-0.929 0.332-1.814 0.688-2.654 0.356-0.847 0.795-1.628 1.317-2.343v0c-0.468 0.224-0.812 0.323-1.03 0.298v0c-0.325-0.036-0.531-0.244-0.617-0.622-0.079-0.378-0.099-0.747-0.059-1.105v0c0.069-0.624 0.254-1.107 0.554-1.45 0.299-0.336 0.582-0.587 0.849-0.753v0c0.625-0.428 1.584-0.866 2.877-1.313 1.293-0.455 2.799-0.587 4.518-0.397v0c2.343 0.26 4.089 1.115 5.238 2.566 1.155 1.458 1.603 3.359 1.344 5.702v0c-0.202 1.825-0.767 3.439-1.696 4.84-0.928 1.402-2.117 2.466-3.568 3.192-1.444 0.72-3.068 0.98-4.873 0.781zM154.651 22.419v0c1.361 0.151 2.559-0.15 3.597-0.902 1.038-0.758 1.635-1.844 1.792-3.258v0c0.163-1.473-0.198-2.578-1.084-3.314-0.887-0.73-1.957-1.164-3.211-1.304v0c-0.571-0.063-1.094-0.068-1.571-0.012-0.477 0.061-0.927 0.149-1.349 0.263v0c-0.445 0.502-0.855 1.078-1.23 1.728-0.374 0.65-0.607 1.384-0.697 2.201v0c-0.152 1.367 0.143 2.441 0.882 3.221 0.739 0.787 1.696 1.246 2.871 1.377z" fill="#6b6565" data-fill-palette-color="primary"></path><path d="M170.612 29.908v0c-1.581-0.47-2.667-1.363-3.258-2.681-0.597-1.32-0.626-2.889-0.086-4.707v0c0.397-1.338 1.006-2.589 1.825-3.752 0.811-1.159 1.766-2.136 2.866-2.931 1.091-0.79 2.251-1.331 3.48-1.621 1.237-0.294 2.473-0.258 3.708 0.109v0c0.787 0.234 1.456 0.561 2.007 0.983 0.544 0.419 0.998 0.885 1.362 1.396v0c0.507-1.8 0.891-3.434 1.152-4.902 0.268-1.467 0.278-2.895 0.03-4.286v0c-0.04-0.242-0.067-0.455-0.082-0.64-0.019-0.194-0.005-0.371 0.043-0.531v0c0.108-0.365 0.363-0.658 0.763-0.881 0.396-0.231 0.849-0.385 1.36-0.463 0.511-0.078 0.961-0.059 1.352 0.056v0c0.711 0.211 1.153 0.68 1.327 1.408 0.168 0.725 0.148 1.636-0.059 2.73-0.215 1.099-0.525 2.331-0.929 3.695v0c-0.595 2.004-1.223 3.778-1.884 5.323-0.663 1.552-1.251 2.909-1.764 4.073v0c-0.343 0.755-0.639 1.412-0.888 1.972-0.248 0.553-0.427 1.016-0.538 1.387v0c-0.553 1.863-0.081 3.205 1.417 4.026v0c0.4 0.202 0.529 0.54 0.389 1.013v0c-0.086 0.288-0.281 0.63-0.588 1.028-0.299 0.399-0.727 0.711-1.281 0.936-0.553 0.219-1.251 0.203-2.096-0.048v0c-1.127-0.335-1.775-0.942-1.946-1.821-0.171-0.88-0.025-2.097 0.437-3.653v0c-1.135 1.126-2.403 1.982-3.803 2.569-1.405 0.579-2.843 0.65-4.316 0.213zM173.083 26.055v0c0.736 0.219 1.543 0.2 2.42-0.055 0.877-0.255 1.728-0.706 2.553-1.352v0c0.488-0.399 0.964-0.877 1.43-1.435 0.474-0.563 0.927-1.139 1.359-1.728v0c-0.985-1.609-2.294-2.656-3.926-3.141v0c-1.421-0.422-2.678-0.329-3.771 0.28-1.098 0.6-1.835 1.534-2.211 2.802v0c-0.319 1.075-0.264 2.05 0.166 2.923 0.43 0.873 1.09 1.442 1.98 1.706z" fill="#6b6565" data-fill-palette-color="primary"></path><path d="M199.989 42.261v0c-0.273-0.18-0.523-0.408-0.749-0.684-0.228-0.286-0.322-0.659-0.283-1.121 0.043-0.467 0.297-1.055 0.763-1.763v0c0.378-0.575 0.909-1.268 1.595-2.081 0.683-0.821 1.436-1.681 2.257-2.579v0c0.84-0.926 1.688-1.931 2.544-3.015 0.858-1.074 1.671-2.198 2.441-3.37v0c0.301-0.458 0.614-0.959 0.94-1.504 0.322-0.539 0.614-1.087 0.875-1.642v0c-0.219-0.008-0.422-0.033-0.609-0.076-0.187-0.043-0.348-0.109-0.482-0.197v0c-0.391-0.257-0.339-0.762 0.156-1.515v0c0.455-0.692 0.989-1.172 1.604-1.439 0.62-0.264 1.487-0.342 2.599-0.235v0c1.084 0.089 2.268 0.348 3.553 0.776 1.275 0.43 2.474 1.014 3.595 1.751v0c2.227 1.463 3.625 3.22 4.195 5.272 0.579 2.05 0.227 4.052-1.056 6.005v0c-0.781 1.189-1.746 2.129-2.895 2.82-1.144 0.695-2.355 1.153-3.635 1.375-1.278 0.231-2.515 0.241-3.712 0.031-1.19-0.207-2.235-0.605-3.133-1.196v0c-0.848-0.557-1.296-1.123-1.342-1.696-0.052-0.577 0.155-1.221 0.62-1.93v0c0.227-0.346 0.476-0.634 0.747-0.863 0.269-0.239 0.543-0.267 0.822-0.084v0c0.067 0.044 0.161 0.126 0.282 0.246 0.119 0.11 0.234 0.234 0.344 0.37v0c0.125 0.114 0.298 0.276 0.52 0.485 0.222 0.21 0.492 0.419 0.81 0.628v0c1.261 0.829 2.521 1.149 3.779 0.96 1.258-0.188 2.257-0.846 2.998-1.973v0c0.766-1.166 0.932-2.368 0.498-3.604-0.431-1.242-1.335-2.315-2.714-3.221v0c-0.502-0.33-1.046-0.627-1.632-0.891-0.576-0.266-1.175-0.504-1.796-0.713v0c-1.06 1.468-2.349 3.083-3.865 4.843v0c-0.895 1.058-1.76 2.108-2.595 3.149-0.83 1.045-1.547 2.027-2.152 2.948v0c-0.528 0.804-0.914 1.556-1.16 2.258-0.254 0.704-0.293 1.425-0.116 2.165v0c0.105 0.533 0.037 0.983-0.205 1.352v0c-0.33 0.502-0.918 0.771-1.764 0.806-0.841 0.039-1.721-0.244-2.642-0.848z" fill="#6b6565" data-fill-palette-color="primary"></path><path d="M218.033 55.315v0c-0.597-0.525-0.893-1.078-0.888-1.66-0.004-0.582 0.357-1.286 1.085-2.114v0c0.344-0.391 0.817-0.869 1.419-1.433 0.607-0.56 1.269-1.165 1.983-1.817v0c0.906-0.778 1.829-1.611 2.77-2.5 0.946-0.884 1.809-1.77 2.59-2.658v0c1.106-1.259 2.195-2.614 3.265-4.064 1.075-1.446 1.798-2.9 2.167-4.363v0c0.18-0.579 0.352-0.962 0.515-1.148v0c0.234-0.266 0.576-0.418 1.028-0.456 0.456-0.044 0.937 0.001 1.442 0.134 0.505 0.133 0.924 0.345 1.255 0.636v0c0.537 0.472 0.724 1.068 0.562 1.787-0.157 0.725-0.561 1.538-1.212 2.442-0.656 0.908-1.453 1.896-2.392 2.965v0c-1.433 1.63-2.739 2.985-3.918 4.064-1.189 1.08-2.243 2.016-3.162 2.808v0c-0.609 0.531-1.183 1.032-1.72 1.502-0.547 0.471-1.012 0.924-1.395 1.361v0c-0.63 0.717-0.969 1.34-1.015 1.868-0.041 0.533 0.069 1.185 0.332 1.959v0c0.071 0.213 0.113 0.388 0.126 0.524 0.004 0.137-0.056 0.276-0.179 0.416v0c-0.145 0.166-0.455 0.351-0.929 0.557-0.474 0.206-1.04 0.278-1.697 0.215-0.653-0.067-1.33-0.409-2.032-1.025z" fill="#6b6565" data-fill-palette-color="primary"></path><path d="M226.577 64.4v0c-1.076-1.25-1.55-2.59-1.424-4.021 0.126-1.43 0.916-2.77 2.369-4.019v0c1.043-0.897 2.252-1.585 3.628-2.065 1.381-0.483 2.82-0.695 4.316-0.634 1.497 0.051 2.958 0.402 4.381 1.053 1.433 0.652 2.731 1.654 3.894 3.006v0c1.076 1.25 1.78 2.499 2.112 3.745 0.332 1.256 0.133 2.198-0.596 2.825v0c-0.182 0.157-0.443 0.346-0.781 0.566-0.339 0.221-0.63 0.379-0.874 0.475v0c-0.219 0.083-0.445 0.123-0.676 0.119-0.232 0.006-0.429-0.084-0.591-0.271v0c-0.074-0.086-0.179-0.269-0.313-0.55v0c-0.505 0.294-0.985 0.596-1.439 0.908-0.45 0.317-0.885 0.656-1.305 1.017v0c-0.79 0.679-1.388 1.401-1.797 2.166-0.403 0.77-0.376 1.57 0.083 2.4v0c0.121 0.222 0.188 0.428 0.202 0.619 0.019 0.186-0.105 0.395-0.374 0.625v0c-0.233 0.2-0.574 0.392-1.023 0.577-0.455 0.188-0.961 0.245-1.519 0.17-0.557-0.084-1.095-0.428-1.613-1.031v0c-0.697-0.81-0.938-1.69-0.725-2.639 0.218-0.945 0.878-1.892 1.982-2.842v0c-1.506 0.318-2.953 0.32-4.34 0.008-1.383-0.308-2.576-1.043-3.577-2.207zM230.675 62.605v0c0.719 0.835 1.611 1.345 2.676 1.529 1.061 0.189 2.141 0.118 3.241-0.211v0c0.692-0.199 1.389-0.49 2.089-0.873 0.701-0.383 1.363-0.807 1.985-1.271v0c-0.143-0.494-0.357-1.014-0.643-1.561-0.29-0.552-0.648-1.076-1.075-1.572v0c-1.093-1.271-2.367-1.994-3.821-2.17-1.459-0.181-2.75 0.212-3.874 1.18v0c-0.835 0.719-1.308 1.526-1.418 2.421-0.119 0.895 0.161 1.738 0.84 2.528z" fill="#6b6565" data-fill-palette-color="primary"></path><path d="M239.936 82.275v0c-0.995-1.645-1.276-3.232-0.842-4.759 0.44-1.53 1.551-2.835 3.334-3.913v0c1.76-1.065 3.56-1.643 5.401-1.734 1.839-0.082 3.556 0.292 5.15 1.122 1.595 0.83 2.897 2.079 3.906 3.747v0c0.681 1.126 1.032 2.131 1.052 3.016 0.02 0.885-0.298 1.526-0.955 1.924v0c-0.583 0.353-1.326 0.42-2.23 0.202v0c-0.339-0.084-0.701-0.243-1.086-0.478-0.385-0.236-0.632-0.445-0.742-0.628v0c-0.128-0.211-0.152-0.439-0.073-0.682v0c0.115-0.39 0.176-0.844 0.182-1.362 0.006-0.519-0.196-1.118-0.608-1.798v0c-0.695-1.148-1.655-1.851-2.88-2.11-1.227-0.249-2.475 0.011-3.743 0.778v0c-1.148 0.695-1.878 1.585-2.189 2.671-0.305 1.082-0.131 2.163 0.522 3.243v0c0.342 0.566 0.815 1.122 1.42 1.669 0.604 0.547 1.251 0.964 1.938 1.251v0c0.393 0.121 0.675 0.322 0.844 0.601v0c0.283 0.468 0.131 0.881-0.457 1.237v0c-0.771 0.467-1.746 0.526-2.925 0.177v0c-0.89-0.258-1.801-0.772-2.735-1.541-0.925-0.767-1.686-1.645-2.284-2.633z" fill="#6b6565" data-fill-palette-color="primary"></path><path d="M247.853 98.049v0c-0.802-1.923-0.88-3.652-0.233-5.188 0.656-1.532 1.973-2.711 3.951-3.537v0c1.793-0.748 3.59-1.038 5.389-0.87 1.796 0.177 3.408 0.745 4.836 1.706 1.43 0.966 2.479 2.247 3.144 3.843v0c0.635 1.522 0.766 2.893 0.392 4.113-0.365 1.223-1.167 2.093-2.406 2.609v0c-0.986 0.411-2.024 0.49-3.114 0.236-1.093-0.26-2.096-0.793-3.011-1.598-0.917-0.811-1.634-1.836-2.151-3.075v0c-0.635-1.522-0.811-2.907-0.528-4.153v0c-1.154 0.511-1.924 1.302-2.309 2.374-0.387 1.066-0.328 2.206 0.179 3.42v0c0.306 0.733 0.753 1.433 1.342 2.099 0.586 0.66 1.225 1.175 1.914 1.545v0c0.449 0.225 0.736 0.489 0.862 0.791v0c0.108 0.259 0.115 0.502 0.022 0.729-0.097 0.236-0.272 0.406-0.524 0.512v0c-0.555 0.231-1.489 0.057-2.802-0.525v0c-2.33-1.025-3.981-2.702-4.953-5.031zM257.012 94.901v0c0.38 0.912 0.889 1.593 1.526 2.044 0.634 0.445 1.241 0.546 1.82 0.304v0c0.481-0.201 0.769-0.559 0.864-1.076 0.104-0.514 0.008-1.125-0.288-1.834v0c-0.391-0.937-0.981-1.649-1.77-2.137-0.784-0.491-1.683-0.705-2.699-0.643v0c-0.079 0.453-0.064 0.982 0.043 1.588 0.105 0.615 0.273 1.2 0.504 1.754z" fill="#6b6565" data-fill-palette-color="primary"></path><path d="M3.087 143.235c0-5.906 4.788-10.694 10.694-10.693 5.906 0 10.694 4.788 10.694 10.693 0 5.906-4.788 10.694-10.694 10.694-5.906 0-10.694-4.788-10.694-10.694z" fill="#6b6565" data-fill-palette-color="primary"></path><path d="M255.245 143.235c0-5.906 4.788-10.694 10.694-10.693 5.906 0 10.694 4.788 10.694 10.693 0 5.906-4.788 10.694-10.694 10.694-5.906 0-10.694-4.788-10.694-10.694z" fill="#6b6565" data-fill-palette-color="primary"></path></g><g id="text-1"><path d="M10.054 185.534l-1.007-3c-0.108-0.323-0.062-0.613 0.14-0.871 0.206-0.267 0.496-0.505 0.87-0.715 0.373-0.21 0.785-0.39 1.234-0.541v0c0.5-0.168 1.155-0.346 1.965-0.534 0.81-0.188 1.783-0.416 2.919-0.684v0l19.182-4.234 1.875 5.583c0.595 1.772 1.088 3.135 1.479 4.089 0.391 0.954 0.694 1.658 0.91 2.114 0.223 0.453 0.377 0.807 0.462 1.06v0c0.091 0.272 0.115 0.479 0.071 0.62-0.052 0.137-0.265 0.269-0.639 0.395v0c-0.456 0.153-0.972 0.231-1.548 0.234-0.585-0.001-1.115-0.08-1.591-0.237-0.471-0.166-0.77-0.435-0.895-0.809v0c-0.049-0.146-0.107-0.341-0.175-0.585-0.066-0.238-0.133-0.522-0.202-0.852-0.066-0.323-0.132-0.667-0.199-1.032v0l-0.988-5.553zM22.914 185.474l-1.687-4.77 3.049-0.485 0.603 1.795c0.361 1.076 0.75 2.108 1.166 3.095 0.416 0.987 0.781 1.823 1.096 2.506 0.316 0.69 0.503 1.12 0.56 1.291v0c0.068 0.203 0.062 0.374-0.018 0.513-0.08 0.14-0.218 0.242-0.414 0.308v0c-0.38 0.128-0.855 0.002-1.426-0.377-0.571-0.379-1.125-0.918-1.664-1.618-0.542-0.691-0.964-1.444-1.265-2.258z" fill="#f3b254" data-fill-palette-color="secondary"></path><path d="M25.895 218.905v0c-1.254-1.884-1.676-3.717-1.265-5.499 0.414-1.776 1.697-3.379 3.848-4.811v0c1.429-0.951 2.909-1.595 4.441-1.933 1.532-0.338 3.029-0.408 4.492-0.21 1.457 0.201 2.798 0.661 4.021 1.378 1.227 0.723 2.235 1.677 3.023 2.861v0c1.254 1.884 1.656 3.699 1.205 5.443-0.461 1.742-1.819 3.365-4.077 4.867v0c-1.362 0.906-2.79 1.532-4.285 1.877-1.495 0.345-2.961 0.426-4.398 0.244-1.437-0.183-2.761-0.629-3.971-1.34-1.22-0.712-2.231-1.671-3.034-2.877zM28.89 218.054v0c0.555 0.834 1.34 1.35 2.355 1.55 1.017 0.19 2.167 0.086 3.45-0.312 1.293-0.395 2.607-1.037 3.941-1.924v0c1.429-0.951 2.417-1.918 2.966-2.901 0.549-0.983 0.494-1.969-0.164-2.959v0c-0.54-0.812-1.328-1.326-2.363-1.543-1.026-0.216-2.185-0.138-3.478 0.233-1.287 0.368-2.612 1.004-3.974 1.911v0c-1.512 1.006-2.504 2.011-2.975 3.014-0.467 1.009-0.387 1.986 0.242 2.931z" fill="#f3b254" data-fill-palette-color="secondary"></path><path d="M52.205 248.482v0c-1.743-1.445-2.673-3.079-2.792-4.903-0.113-1.82 0.655-3.725 2.303-5.714v0c1.095-1.321 2.328-2.364 3.698-3.128 1.37-0.764 2.784-1.261 4.243-1.492 1.454-0.226 2.87-0.171 4.248 0.165 1.383 0.34 2.623 0.964 3.717 1.871v0c1.743 1.445 2.649 3.067 2.718 4.868 0.059 1.801-0.776 3.745-2.506 5.832v0c-1.044 1.26-2.232 2.269-3.565 3.03-1.333 0.76-2.713 1.259-4.142 1.497-1.429 0.238-2.825 0.191-4.189-0.142-1.373-0.332-2.617-0.96-3.733-1.884zM54.829 246.807v0c0.771 0.639 1.671 0.908 2.701 0.807 1.028-0.11 2.1-0.54 3.215-1.29 1.125-0.75 2.199-1.742 3.222-2.976v0c1.095-1.321 1.764-2.531 2.007-3.63 0.243-1.099-0.093-2.028-1.007-2.787v0c-0.751-0.622-1.653-0.889-2.707-0.8-1.045 0.088-2.133 0.496-3.265 1.223-1.127 0.722-2.213 1.713-3.257 2.973v0c-1.159 1.398-1.82 2.646-1.983 3.742-0.158 1.101 0.2 2.013 1.074 2.738z" fill="#f3b254" data-fill-palette-color="secondary"></path><path d="M83.19 268.097v0c-1.315-0.543-2.037-1.47-2.168-2.781-0.127-1.302 0.238-2.99 1.095-5.064v0c0.734-1.777 1.658-3.307 2.772-4.587 1.112-1.275 2.342-2.269 3.692-2.984 1.35-0.714 2.742-1.121 4.178-1.222 1.438-0.107 2.852 0.127 4.241 0.7v0c0.858 0.354 1.649 0.844 2.373 1.468 0.722 0.631 1.329 1.217 1.82 1.76v0l-2.655 3.097c-0.473-0.708-1.006-1.369-1.598-1.982-0.583-0.617-1.14-1.132-1.67-1.546-0.527-0.42-0.948-0.695-1.263-0.825v0c-0.704-0.291-1.487-0.221-2.351 0.21-0.862 0.424-1.713 1.157-2.555 2.197-0.839 1.034-1.575 2.319-2.209 3.855v0c-0.584 1.413-0.924 2.526-1.022 3.339-0.091 0.815 0.095 1.318 0.558 1.509v0c0.389 0.161 1.138 0.051 2.249-0.329 1.113-0.386 2.559-1.194 4.339-2.423 1.78-1.23 3.859-3.037 6.237-5.422v0l-0.277 3.689c-2.504 2.39-4.746 4.188-6.725 5.394-1.979 1.206-3.718 1.943-5.216 2.213-1.49 0.266-2.772 0.177-3.845-0.266zM95.493 272.918l-2.565-1.059c-0.265-0.11-0.434-0.356-0.507-0.741-0.066-0.381-0.059-0.812 0.024-1.29 0.082-0.479 0.199-0.901 0.349-1.265v0c0.252-0.611 0.644-1.262 1.175-1.953 0.527-0.7 1.197-1.579 2.01-2.638v0l1.863-2.438-0.583-1.606 1.985-3.678 0.774-0.406 4.256-9.491 2.851 1.178c0.364 0.15 0.598 0.431 0.703 0.843 0.096 0.415 0.111 0.859 0.047 1.33-0.065 0.472-0.177 0.902-0.338 1.291v0c-0.099 0.241-0.225 0.51-0.378 0.809-0.15 0.292-0.37 0.685-0.66 1.179-0.291 0.494-0.698 1.175-1.222 2.042v0l-4.685 7.905c-0.648 1.098-1.285 2.229-1.91 3.394-0.628 1.171-1.209 2.315-1.742 3.431-0.53 1.125-1.012 2.179-1.447 3.163z" fill="#f3b254" data-fill-palette-color="secondary"></path><path d="M154.528 279.284l-3.167 0.424c-0.443 0.059-0.786-0.11-1.028-0.508-0.241-0.392-0.409-0.939-0.503-1.641v0c-0.07-0.523-0.109-1.117-0.118-1.783v0l-0.597-23.214 7.287-0.977c3.21-0.43 5.684-0.217 7.423 0.642 1.739 0.858 2.775 2.528 3.107 5.01v0c0.203 1.516 0.041 2.945-0.486 4.289-0.52 1.35-1.261 2.554-2.224 3.613-0.963 1.059-2.023 1.919-3.181 2.579-1.164 0.661-2.283 1.064-3.355 1.208v0c-0.285 0.038-0.615-0.012-0.99-0.15-0.381-0.131-0.714-0.325-0.998-0.584-0.29-0.251-0.454-0.522-0.493-0.813v0c-0.038-0.285 0.027-0.499 0.197-0.643 0.169-0.144 0.355-0.243 0.556-0.297v0c1.147-0.39 2.197-0.948 3.151-1.675 0.953-0.727 1.682-1.624 2.186-2.688 0.511-1.066 0.675-2.277 0.493-3.634v0c-0.158-1.178-0.562-2.054-1.211-2.627-0.65-0.58-1.526-0.927-2.626-1.042-1.108-0.121-2.459-0.074-4.054 0.139v0z" fill="#f3b254" data-fill-palette-color="secondary"></path><path d="M194.726 269.12l-2.551 1.064c-0.438 0.182-0.891 0.057-1.362-0.377-0.461-0.43-0.827-1.004-1.098-1.723v0c-0.32-0.836-0.66-1.852-1.02-3.047-0.352-1.192-0.7-2.374-1.045-3.547v0l-2.57-9.032c-0.309-1.159-0.678-2.148-1.107-2.967-0.428-0.82-0.839-1.535-1.231-2.146-0.396-0.602-0.69-1.134-0.882-1.596v0c-0.113-0.271 0.001-0.597 0.341-0.978 0.338-0.387 0.76-0.762 1.267-1.125 0.504-0.369 0.951-0.635 1.339-0.797v0c0.413-0.172 0.901-0.025 1.465 0.442 0.561 0.461 1.005 1.082 1.331 1.865v0c0.069 0.166 0.246 0.65 0.529 1.451 0.274 0.797 0.546 1.726 0.813 2.786v0l2.334 8.88c0.483 1.853 1.037 3.669 1.664 5.449 0.632 1.777 1.226 3.576 1.783 5.398z" fill="#f3b254" data-fill-palette-color="secondary"></path><path d="M219.742 254.592v0c-1.166 0.905-2.366 1.08-3.6 0.524-1.233-0.565-2.512-1.701-3.839-3.41v0c-1.179-1.519-2.038-3.088-2.576-4.708-0.54-1.61-0.785-3.178-0.735-4.704 0.055-1.53 0.395-2.944 1.02-4.24 0.621-1.302 1.504-2.397 2.648-3.286v0c0.897-0.696 1.806-1.212 2.729-1.547 0.927-0.331 1.748-0.575 2.463-0.732v0l1.646 3.983c-0.855 0.064-1.754 0.207-2.695 0.432-0.938 0.229-1.772 0.488-2.504 0.776-0.73 0.279-1.243 0.533-1.538 0.763v0c-0.58 0.45-0.892 1.153-0.937 2.109-0.048 0.95 0.181 2.041 0.688 3.271 0.502 1.225 1.263 2.493 2.282 3.807v0c0.938 1.208 1.735 2.056 2.393 2.543 0.662 0.483 1.192 0.571 1.587 0.264v0c0.269-0.209 0.488-0.869 0.656-1.981 0.17-1.121 0.154-2.753-0.047-4.895-0.196-2.147-0.736-4.847-1.62-8.1v0l3.026 2.102c0.817 3.372 1.29 6.192 1.418 8.459 0.123 2.271-0.03 4.094-0.461 5.468-0.439 1.372-1.108 2.406-2.004 3.102zM229.248 246.91l-2.184 1.695c-0.417 0.323-0.823 0.317-1.219-0.018-0.4-0.341-0.778-0.74-1.133-1.2v0c-0.274-0.353-0.567-0.828-0.877-1.424-0.31-0.596-0.628-1.25-0.952-1.961-0.323-0.721-0.628-1.435-0.915-2.143v0l-1.13-2.876-1.534-0.115-2.917-5.293c0.588-0.625 1.072-1.216 1.451-1.773 0.381-0.566 0.695-1.043 0.944-1.43 0.245-0.393 0.441-0.646 0.589-0.761v0c0.227-0.176 0.436-0.14 0.629 0.107v0c0.082 0.105 0.297 0.649 0.644 1.631 0.347 0.981 0.84 2.193 1.476 3.634 0.632 1.445 1.425 2.93 2.38 4.454v0z" fill="#f3b254" data-fill-palette-color="secondary"></path><path d="M250.576 223.832v0c-1.215 1.692-2.668 2.61-4.357 2.752-1.699 0.144-3.532-0.49-5.501-1.905v0c-1.925-1.383-3.385-3.007-4.38-4.873-0.995-1.866-1.464-3.777-1.406-5.733 0.057-1.957 0.692-3.778 1.903-5.465v0c0.647-0.9 1.335-1.606 2.064-2.118 0.728-0.521 1.466-0.513 2.215 0.024v0c0.32 0.23 0.601 0.514 0.843 0.853 0.247 0.342 0.417 0.673 0.507 0.993 0.092 0.329 0.078 0.578-0.043 0.746v0c-0.062 0.087-0.175 0.187-0.338 0.3-0.159 0.107-0.311 0.192-0.454 0.253v0c-0.323 0.13-0.699 0.292-1.126 0.486-0.433 0.191-0.865 0.431-1.295 0.722-0.436 0.287-0.808 0.644-1.116 1.073v0c-0.475 0.662-0.59 1.479-0.345 2.454 0.24 0.97 0.766 1.973 1.577 3.007 0.816 1.038 1.823 1.988 3.022 2.849v0c1.584 1.138 2.812 1.654 3.684 1.549 0.863-0.103 1.626-0.616 2.289-1.538v0c0.553-0.77 0.89-1.519 1.01-2.246 0.12-0.728 0.184-1.458 0.193-2.192v0c0.01-0.289 0.038-0.499 0.083-0.631 0.041-0.126 0.093-0.233 0.156-0.32v0c0.078-0.108 0.184-0.164 0.317-0.167 0.134-0.003 0.252 0.033 0.355 0.107v0c0.385 0.277 0.713 0.759 0.983 1.447 0.275 0.682 0.442 1.468 0.502 2.358 0.064 0.884-0.005 1.781-0.206 2.689-0.204 0.914-0.583 1.756-1.136 2.526z" fill="#f3b254" data-fill-palette-color="secondary"></path><path d="M267.424 192.474v0c-0.709 1.902-1.854 3.147-3.434 3.734-1.588 0.591-3.431 0.496-5.527-0.286v0c-1.752-0.653-3.265-1.498-4.538-2.536-1.274-1.038-2.289-2.204-3.046-3.498-0.751-1.292-1.201-2.646-1.351-4.063-0.147-1.423 0.043-2.838 0.568-4.246v0c0.625-1.677 1.463-2.825 2.513-3.446 1.044-0.623 2.233-0.685 3.566-0.188v0c1.358 0.506 2.375 1.399 3.053 2.677 0.678 1.279 1.058 2.896 1.142 4.851 0.09 1.958-0.056 4.202-0.436 6.732v0l-2.406-0.341c0.331-1.423 0.499-2.782 0.505-4.077 0.003-1.289-0.216-2.411-0.659-3.367-0.45-0.952-1.157-1.607-2.121-1.966v0c-0.663-0.247-1.218-0.308-1.664-0.182-0.44 0.128-0.784 0.527-1.034 1.197v0c-0.378 1.014-0.325 2.01 0.159 2.987 0.475 0.982 1.237 1.872 2.286 2.67 1.056 0.8 2.25 1.448 3.583 1.945v0c1.802 0.672 3.11 0.842 3.925 0.512 0.806-0.327 1.412-1.034 1.817-2.124v0c0.424-1.139 0.617-2.2 0.578-3.183-0.039-0.984-0.141-1.859-0.304-2.626v0c-0.053-0.241-0.089-0.45-0.108-0.628-0.019-0.178-0.011-0.314 0.024-0.408v0c0.047-0.125 0.134-0.207 0.262-0.244 0.128-0.038 0.255-0.033 0.38 0.013v0c0.444 0.166 0.89 0.556 1.337 1.172 0.439 0.62 0.808 1.399 1.107 2.337 0.299 0.938 0.455 1.972 0.468 3.103 0.013 1.131-0.202 2.291-0.645 3.479z" fill="#f3b254" data-fill-palette-color="secondary"></path></g></svg></g></svg></g></svg></g></svg></g><defs></defs></svg><rect width="279.72" height="279.72" fill="none" stroke="none" visibility="hidden"></rect></g></svg></g></svg>